<svg width="30" height="30" viewBox="0 0 30 30" fill="none" xmlns="http://www.w3.org/2000/svg">
<path d="M21.875 13.75V9.125C21.875 6.29625 21.875 4.8825 20.9063 4.00375C19.9363 3.125 18.3775 3.125 15.2562 3.125H9.74375C6.6225 3.125 5.06375 3.125 4.09375 4.00375C3.12375 4.8825 3.125 6.29625 3.125 9.125V17.125C3.125 19.9537 3.125 21.3675 4.09375 22.2463C5.06375 23.125 6.6225 23.125 9.74375 23.125H13.75M6.875 8.125H18.125M6.875 13.125H8.125M11.875 13.125H13.125M16.875 13.125H18.125M6.875 18.125H8.125M11.875 18.125H13.125" stroke="#58B4BF" stroke-width="1.5" stroke-linecap="round" stroke-linejoin="round"/>
<path d="M21.875 26.875C24.6364 26.875 26.875 24.6364 26.875 21.875C26.875 19.1136 24.6364 16.875 21.875 16.875C19.1136 16.875 16.875 19.1136 16.875 21.875C16.875 24.6364 19.1136 26.875 21.875 26.875Z" stroke="#58B4BF" stroke-width="1.5" stroke-linecap="round" stroke-linejoin="round"/>
<path d="M23.125 22.5L21.875 21.875V20" stroke="#58B4BF" stroke-width="1.5" stroke-linecap="round" stroke-linejoin="round"/>
</svg>
