<svg width="30" height="30" viewBox="0 0 30 30" fill="none" xmlns="http://www.w3.org/2000/svg">
<path d="M15 7.5L16.7925 10.9716L20.625 11.5284L17.8125 14.0625L18.75 17.8125L15 15.7031L11.25 17.8125L12.1875 14.0625L9.375 11.5284L13.3125 10.9716L15 7.5Z" fill="white"/>
<path d="M16.6275 28.125L15 27.1875L18.75 20.625H24.375C24.6213 20.6254 24.8653 20.5771 25.093 20.483C25.3206 20.3889 25.5275 20.2508 25.7017 20.0767C25.8758 19.9025 26.0139 19.6956 26.108 19.468C26.2021 19.2403 26.2504 18.9963 26.25 18.75V7.5C26.2504 7.25367 26.2021 7.00968 26.108 6.78203C26.0139 6.55438 25.8758 6.34753 25.7017 6.17335C25.5275 5.99917 25.3206 5.86107 25.093 5.76697C24.8653 5.67288 24.6213 5.62463 24.375 5.625H5.625C5.37867 5.62463 5.13468 5.67288 4.90703 5.76697C4.67938 5.86107 4.47253 5.99917 4.29835 6.17335C4.12417 6.34753 3.98607 6.55438 3.89197 6.78203C3.79788 7.00968 3.74963 7.25367 3.75 7.5V18.75C3.74963 18.9963 3.79788 19.2403 3.89197 19.468C3.98607 19.6956 4.12417 19.9025 4.29835 20.0767C4.47253 20.2508 4.67938 20.3889 4.90703 20.483C5.13468 20.5771 5.37867 20.6254 5.625 20.625H14.0625V22.5H5.625C4.63044 22.5 3.67661 22.1049 2.97335 21.4016C2.27009 20.6984 1.875 19.7446 1.875 18.75V7.5C1.875 6.50544 2.27009 5.55161 2.97335 4.84835C3.67661 4.14509 4.63044 3.75 5.625 3.75H24.375C25.3696 3.75 26.3234 4.14509 27.0266 4.84835C27.7299 5.55161 28.125 6.50544 28.125 7.5V18.75C28.125 19.7446 27.7299 20.6984 27.0266 21.4016C26.3234 22.1049 25.3696 22.5 24.375 22.5H19.8422L16.6275 28.125Z" fill="white"/>
</svg>
