<svg width="28" height="28" viewBox="0 0 28 28" fill="none" xmlns="http://www.w3.org/2000/svg">
<g clip-path="url(#clip0_299_2924)">
<path fill-rule="evenodd" clip-rule="evenodd" d="M20.125 24.5C24.4825 24.5 28 22.75 28 20.125V3.5C28 1.75 24.5 0 20.125 0C15.75 0 12.25 1.75 12.25 3.5V9.625C14.2975 10.4825 16.0475 11.9175 17.29 13.7375C18.1475 13.9055 19.0925 13.9983 20.125 13.9983C22.4175 13.9983 24.325 13.5415 25.69 12.7978C25.8838 12.6912 26.0724 12.5756 26.2553 12.4513V14.8663C26.2553 15.2775 25.928 15.9162 24.8518 16.5042C23.8088 17.073 22.2093 17.4912 20.1268 17.4912C19.7103 17.4912 19.3136 17.4755 18.9368 17.444C19.0768 18.0192 19.1701 18.6083 19.2168 19.2115C19.5119 19.2278 19.8153 19.236 20.1268 19.236C22.4193 19.236 24.3267 18.7792 25.6917 18.0355C25.8855 17.929 26.0742 17.8134 26.257 17.689V20.104C26.257 20.517 25.9963 21.1295 24.8728 21.735C23.7668 22.33 22.1078 22.729 20.1303 22.729C19.7278 22.729 19.3381 22.7127 18.9613 22.68C18.8267 23.2617 18.6459 23.8317 18.4205 24.3845C18.9712 24.4463 19.5405 24.4773 20.1285 24.4773L20.125 24.5ZM24.85 11.27C25.9262 10.682 26.2535 10.0433 26.2535 9.632V7.217C26.0727 7.34067 25.8842 7.45617 25.6882 7.5635C24.3267 8.30725 22.4157 8.764 20.1232 8.764C17.8307 8.764 15.9233 8.30725 14.5583 7.5635C14.3645 7.45699 14.1758 7.34136 13.993 7.217V9.632C13.993 10.0433 14.3203 10.682 15.3965 11.2683C16.4395 11.837 18.039 12.2552 20.1215 12.2552C22.204 12.2552 23.7965 11.837 24.8465 11.2683L24.85 11.27ZM14 4.375C14 3.871 14.2187 3.38625 14.6265 3.0905C14.8487 2.9295 15.0903 2.7685 15.281 2.681C15.7588 2.4605 18.151 1.74825 20.1285 1.74825C22.106 1.74825 23.821 2.1455 24.976 2.681C25.193 2.78075 25.4328 2.9365 25.6445 3.0905C26.0488 3.38275 26.257 3.864 26.257 4.36275V4.37325C26.257 4.7845 25.9297 5.42325 24.8535 6.01125C23.8105 6.58 22.211 6.99825 20.1285 6.99825C18.046 6.99825 16.4535 6.57825 15.4035 6.01125C14.3273 5.425 14 4.7845 14 4.375Z" fill="#58B4BF"/>
<path fill-rule="evenodd" clip-rule="evenodd" d="M15.75 20.125C15.75 24.4825 12.2325 28 7.875 28C3.5175 28 0 24.4825 0 20.125C0 15.7675 3.5175 12.25 7.875 12.25C12.2325 12.25 15.75 15.7675 15.75 20.125ZM14 20.125C14 23.5025 11.2525 26.25 7.875 26.25C4.4975 26.25 1.75 23.5025 1.75 20.125C1.75 16.7475 4.4975 14 7.875 14C11.2525 14 14 16.7475 14 20.125Z" fill="#58B4BF"/>
</g>
<defs>
<clipPath id="clip0_299_2924">
<rect width="28" height="28" fill="white"/>
</clipPath>
</defs>
</svg>
