<svg width="31" height="31" viewBox="0 0 31 31" fill="none" xmlns="http://www.w3.org/2000/svg">
<path d="M17.4376 25.8334C17.4376 25.8334 18.7293 25.8334 20.021 28.4167C20.021 28.4167 24.1246 21.9584 27.771 20.6667M9.04179 20.6667H14.2085M9.04179 14.2084H19.3751M8.39595 4.52087C6.38612 4.58158 5.18875 4.80504 4.3595 5.63429C3.22412 6.77096 3.22412 8.59867 3.22412 12.2554V20.659C3.22412 24.317 3.22412 26.1447 4.3595 27.2813C5.49358 28.4167 7.32129 28.4167 10.9741 28.4167H14.2033M20.0106 4.52087C22.0205 4.58158 23.2191 4.80504 24.0471 5.63429C25.1837 6.77096 25.1837 8.59867 25.1837 12.2554V17.4375" stroke="#58B4BF" stroke-width="1.5" stroke-linecap="round" stroke-linejoin="round"/>
<path d="M8.39087 4.84379C8.39087 3.59604 9.40354 2.58337 10.6513 2.58337H17.7555C18.355 2.58337 18.9299 2.82152 19.3538 3.24543C19.7777 3.66935 20.0159 4.24429 20.0159 4.84379C20.0159 5.44329 19.7777 6.01824 19.3538 6.44215C18.9299 6.86606 18.355 7.10421 17.7555 7.10421H10.6513C10.0518 7.10421 9.47684 6.86606 9.05293 6.44215C8.62902 6.01824 8.39087 5.44329 8.39087 4.84379Z" stroke="#58B4BF" stroke-width="1.5" stroke-linecap="round" stroke-linejoin="round"/>
</svg>
