<svg width="34" height="26" viewBox="0 0 34 26" fill="none" xmlns="http://www.w3.org/2000/svg">
<path d="M33.1356 24.4705H30.5424V9.94071C30.5424 9.46747 30.3299 9.01361 29.9516 8.67898C29.5734 8.34434 29.0604 8.15635 28.5254 8.15635H19.0169V1.78361C19.0168 1.46065 18.9176 1.14378 18.7298 0.866797C18.5421 0.589809 18.2729 0.363087 17.951 0.210807C17.6291 0.0585272 17.2665 -0.013601 16.9019 0.00211409C16.5372 0.0178291 16.1843 0.120798 15.8806 0.300041L4.35517 7.0972C4.07898 7.26022 3.85255 7.48105 3.69597 7.74007C3.5394 7.99909 3.45753 8.28831 3.45763 8.58205V24.4705H0.864407C0.635152 24.4705 0.415287 24.5511 0.253179 24.6945C0.0910712 24.8379 0 25.0325 0 25.2353C0 25.4381 0.0910712 25.6326 0.253179 25.776C0.415287 25.9194 0.635152 26 0.864407 26H33.1356C33.3648 26 33.5847 25.9194 33.7468 25.776C33.9089 25.6326 34 25.4381 34 25.2353C34 25.0325 33.9089 24.8379 33.7468 24.6945C33.5847 24.5511 33.3648 24.4705 33.1356 24.4705ZM28.5254 9.6858C28.6018 9.6858 28.6751 9.71266 28.7292 9.76046C28.7832 9.80827 28.8136 9.87311 28.8136 9.94071V24.4705H19.0169V9.6858H28.5254ZM5.18644 8.58205C5.18653 8.54018 5.19827 8.49897 5.22064 8.46207C5.243 8.42517 5.27529 8.39371 5.31466 8.37047L16.8401 1.57204C16.8834 1.54645 16.9338 1.53174 16.9859 1.52948C17.0379 1.52722 17.0897 1.53749 17.1357 1.5592C17.1817 1.58092 17.2201 1.61325 17.247 1.65277C17.2738 1.69229 17.288 1.73751 17.2881 1.78361V24.4705H5.18644V8.58205ZM14.4068 11.98V14.0193C14.4068 14.2221 14.3157 14.4166 14.1536 14.56C13.9915 14.7034 13.7716 14.784 13.5424 14.784C13.3131 14.784 13.0933 14.7034 12.9311 14.56C12.769 14.4166 12.678 14.2221 12.678 14.0193V11.98C12.678 11.7772 12.769 11.5827 12.9311 11.4392C13.0933 11.2958 13.3131 11.2153 13.5424 11.2153C13.7716 11.2153 13.9915 11.2958 14.1536 11.4392C14.3157 11.5827 14.4068 11.7772 14.4068 11.98ZM9.79661 11.98V14.0193C9.79661 14.2221 9.70554 14.4166 9.54343 14.56C9.38132 14.7034 9.16146 14.784 8.9322 14.784C8.70295 14.784 8.48308 14.7034 8.32098 14.56C8.15887 14.4166 8.0678 14.2221 8.0678 14.0193V11.98C8.0678 11.7772 8.15887 11.5827 8.32098 11.4392C8.48308 11.2958 8.70295 11.2153 8.9322 11.2153C9.16146 11.2153 9.38132 11.2958 9.54343 11.4392C9.70554 11.5827 9.79661 11.7772 9.79661 11.98ZM9.79661 19.1174V21.1567C9.79661 21.3595 9.70554 21.5541 9.54343 21.6975C9.38132 21.8409 9.16146 21.9214 8.9322 21.9214C8.70295 21.9214 8.48308 21.8409 8.32098 21.6975C8.15887 21.5541 8.0678 21.3595 8.0678 21.1567V19.1174C8.0678 18.9146 8.15887 18.7201 8.32098 18.5767C8.48308 18.4333 8.70295 18.3527 8.9322 18.3527C9.16146 18.3527 9.38132 18.4333 9.54343 18.5767C9.70554 18.7201 9.79661 18.9146 9.79661 19.1174ZM14.4068 19.1174V21.1567C14.4068 21.3595 14.3157 21.5541 14.1536 21.6975C13.9915 21.8409 13.7716 21.9214 13.5424 21.9214C13.3131 21.9214 13.0933 21.8409 12.9311 21.6975C12.769 21.5541 12.678 21.3595 12.678 21.1567V19.1174C12.678 18.9146 12.769 18.7201 12.9311 18.5767C13.0933 18.4333 13.3131 18.3527 13.5424 18.3527C13.7716 18.3527 13.9915 18.4333 14.1536 18.5767C14.3157 18.7201 14.4068 18.9146 14.4068 19.1174Z" fill="white"/>
</svg>
