<svg width="25" height="25" viewBox="0 0 25 25" fill="none" xmlns="http://www.w3.org/2000/svg">
<path d="M21.0938 3.125H0.78125V18.75H21.0938V3.125ZM19.5312 17.1875H2.34375V4.6875H19.5312V17.1875Z" fill="#58B4BF"/>
<path d="M22.6562 7.03125V20.3125H4.6875V21.875H24.2188V7.03125H22.6562Z" fill="#58B4BF"/>
<path d="M10.9375 14.7686C12.876 14.7686 14.4531 13.0529 14.4531 10.944C14.4531 8.83521 12.876 7.11953 10.9375 7.11953C8.99902 7.11953 7.42188 8.83516 7.42188 10.944C7.42188 13.0529 8.99902 14.7686 10.9375 14.7686ZM10.9375 8.68203C12.0145 8.68203 12.8906 9.69678 12.8906 10.944C12.8906 12.1913 12.0145 13.2061 10.9375 13.2061C9.86055 13.2061 8.98438 12.1913 8.98438 10.944C8.98438 9.69678 9.86055 8.68203 10.9375 8.68203ZM3.90625 6.64062H5.46875V15.2344H3.90625V6.64062ZM16.4062 6.64062H17.9688V15.2344H16.4062V6.64062Z" fill="#58B4BF"/>
</svg>
