<svg width="24" height="26" viewBox="0 0 24 26" fill="none" xmlns="http://www.w3.org/2000/svg">
<path d="M17.5 9.8421C17.5 16.5747 6.5 16.5747 6.5 9.8421H9.25C9.25 13.2147 14.75 13.2147 14.75 9.8421M20.3875 21.2105C20.3875 20.4021 16.0837 18.5579 12 18.5579C7.91625 18.5579 3.6125 20.4021 3.6125 21.2105V22.6H20.3875M12.6875 1C13.0725 1 13.375 1.27789 13.375 1.63158V5.42105H14.75V2.26316C15.7231 2.67687 16.5384 3.34972 17.0901 4.19438C17.6417 5.03905 17.9043 6.01653 17.8437 7C17.8437 7 18.8062 7.17684 18.875 8.57895H5.125C5.125 7.17684 6.15625 7 6.15625 7C6.09568 6.01653 6.35827 5.03905 6.90994 4.19438C7.46162 3.34972 8.2769 2.67687 9.25 2.26316V5.42105H10.625V1.63158C10.625 1.27789 10.9275 1 11.3125 1M23 21.2105V25H1V21.2105C1 17.8379 8.32875 16.1579 12 16.1579C15.6712 16.1579 23 17.8379 23 21.2105Z" stroke="#58B4BF"/>
</svg>
