<svg width="31" height="31" viewBox="0 0 31 31" fill="none" xmlns="http://www.w3.org/2000/svg">
<path d="M11.625 12.9167L15.8333 16.0735C16.094 16.2691 16.419 16.3588 16.7431 16.3248C17.0672 16.2908 17.3664 16.1355 17.5809 15.8901L25.8333 6.45837" stroke="#58B4BF" stroke-linecap="round"/>
<path d="M27.125 15.5C27.125 17.929 26.3642 20.2971 24.9494 22.2715C23.5346 24.2459 21.5368 25.7276 19.2367 26.5083C16.9366 27.2891 14.4497 27.3298 12.1253 26.6246C9.80086 25.9195 7.75572 24.504 6.27708 22.5768C4.79844 20.6497 3.96059 18.3079 3.88121 15.8802C3.80183 13.4524 4.4849 11.0608 5.83449 9.04126C7.18408 7.02168 9.13238 5.47557 11.4058 4.62009C13.6791 3.76461 16.1634 3.64273 18.5096 4.27158" stroke="#58B4BF" stroke-linecap="round"/>
</svg>
