<svg width="32" height="31" viewBox="0 0 32 31" fill="none" xmlns="http://www.w3.org/2000/svg">
<path d="M12.125 12.9167L16.3333 16.0735C16.594 16.2691 16.919 16.3588 17.2431 16.3248C17.5672 16.2908 17.8664 16.1355 18.0809 15.8901L26.3333 6.45837" stroke="white" stroke-linecap="round"/>
<path d="M27.625 15.5C27.625 17.929 26.8642 20.2971 25.4494 22.2715C24.0346 24.2459 22.0368 25.7276 19.7367 26.5083C17.4366 27.2891 14.9497 27.3298 12.6253 26.6246C10.3009 25.9195 8.25572 24.504 6.77708 22.5768C5.29844 20.6497 4.46059 18.3079 4.38121 15.8802C4.30183 13.4524 4.9849 11.0608 6.33449 9.04126C7.68408 7.02168 9.63238 5.47557 11.9058 4.62009C14.1791 3.76461 16.6634 3.64273 19.0096 4.27158" stroke="white" stroke-linecap="round"/>
</svg>
